<svg version="1.1" viewBox="0.0 0.0 581.7611548556431 587.5196850393701" fill="none" stroke="none" stroke-linecap="square" stroke-miterlimit="10" xmlns:xlink="http://www.w3.org/1999/xlink" xmlns="http://www.w3.org/2000/svg"><clipPath id="g229e5b2ba84_0_32.0"><path d="m0 0l581.76117 0l0 587.5197l-581.76117 0l0 -587.5197z" clip-rule="nonzero"/></clipPath><g clip-path="url(#g229e5b2ba84_0_32.0)"><path fill="#ffffff" d="m0 0l581.76117 0l0 587.5197l-581.76117 0z" fill-rule="evenodd"/><path fill="#000000" fill-opacity="0.0" d="m-0.0630063 459.67096l581.8898 0l0 141.38586l-581.8898 0z" fill-rule="evenodd"/><path fill="#000000" d="m110.02161 509.0039l0 -26.1875l7.640625 0l0 26.1875l-7.640625 0zm11.30246 0l0 -26.1875l6.5 0l9.890625 13.875l0 -13.875l7.640625 0l0 26.1875l-6.546875 0l-9.84375 -13.828125l0 13.828125l-7.640625 0zm36.26509 0.40625q-2.640625 0 -5.0 -0.421875q-2.359375 -0.4375 -4.03125 -1.203125l0 -6.296875q1.84375 0.84375 4.078125 1.375q2.234375 0.53125 4.1875 0.53125q2.03125 0 3.0625 -0.34375q1.03125 -0.34375 1.03125 -1.5625q0 -0.859375 -0.59375 -1.34375q-0.578125 -0.484375 -1.828125 -0.890625q-1.234375 -0.421875 -3.21875 -1.03125q-2.640625 -0.84375 -4.1875 -1.859375q-1.546875 -1.015625 -2.21875 -2.484375q-0.671875 -1.46875 -0.671875 -3.578125q0 -3.859375 2.734375 -5.875q2.75 -2.015625 8.15625 -2.015625q2.15625 0 4.453125 0.375q2.296875 0.359375 3.71875 0.8125l0 6.34375q-1.90625 -0.78125 -3.65625 -1.09375q-1.75 -0.328125 -3.296875 -0.328125q-1.78125 0 -3.046875 0.28125q-1.25 0.28125 -1.25 1.453125q0 1.03125 1.078125 1.5q1.078125 0.453125 3.828125 1.1875q3.21875 0.859375 4.90625 2.078125q1.6875 1.21875 2.296875 2.828125q0.609375 1.609375 0.609375 3.640625q0 3.578125 -2.765625 5.75q-2.765625 2.171875 -8.375 2.171875zm19.720505 -0.40625l0 -20.484375l-7.359375 0l0 -5.703125l22.359375 0l0 5.703125l-7.359375 0l0 20.484375l-7.640625 0zm17.033173 0l0 -26.1875l7.640625 0l0 26.1875l-7.640625 0zm17.036835 0l0 -20.484375l-7.359375 0l0 -5.703125l22.359375 0l0 5.703125l-7.359375 0l0 20.484375l-7.640625 0zm29.236298 0.40625q-3.65625 0 -6.453125 -1.1875q-2.78125 -1.203125 -4.375 -3.546875q-1.578125 -2.34375 -1.578125 -5.75l0 -16.109375l7.640625 0l0 15.296875q0 4.796875 4.765625 4.796875q2.265625 0 3.484375 -1.171875q1.234375 -1.1875 1.234375 -3.625l0 -15.296875l7.640625 0l0 16.109375q0 3.40625 -1.578125 5.75q-1.5625 2.34375 -4.34375 3.546875q-2.78125 1.1875 -6.4375 1.1875zm21.543427 -0.40625l0 -20.484375l-7.3593445 0l0 -5.703125l22.359344 0l0 5.703125l-7.359375 0l0 20.484375l-7.640625 0zm29.189026 0.40625q-6.5 0 -9.9375 -3.171875q-3.4375 -3.171875 -3.4375 -10.25q0 -4.875 1.546875 -7.859375q1.546875 -2.984375 4.53125 -4.34375q2.984375 -1.375 7.296875 -1.375q4.3125 0 7.296875 1.375q2.984375 1.359375 4.53125 4.34375q1.546875 2.984375 1.546875 7.859375q0 7.078125 -3.453125 10.25q-3.453125 3.171875 -9.921875 3.171875zm0 -6.5q2.921875 0 4.25 -1.640625q1.328125 -1.65625 1.328125 -5.28125q0 -3.859375 -1.328125 -5.453125q-1.328125 -1.609375 -4.25 -1.609375q-2.921875 0 -4.25 1.609375q-1.3125 1.59375 -1.3125 5.453125q0 3.625 1.3125 5.28125q1.328125 1.640625 4.25 1.640625zm24.556732 6.09375l0 -26.1875l7.640625 0l0 26.1875l-7.640625 0zm11.30246 0l0 -26.1875l6.5 0l9.890625 13.875l0 -13.875l7.640625 0l0 26.1875l-6.546875 0l-9.84375 -13.828125l0 13.828125l-7.640625 0zm35.498627 0l0 -9.59375l-9.4375 -16.59375l7.96875 0l5.28125 9.890625l5.296875 -9.890625l7.96875 0l-9.4375 16.59375l0 9.59375l-7.640625 0zm29.021576 0.40625q-6.5 0 -9.9375 -3.171875q-3.4375 -3.171875 -3.4375 -10.25q0 -4.875 1.546875 -7.859375q1.546875 -2.984375 4.53125 -4.34375q2.984375 -1.375 7.296875 -1.375q4.3125 0 7.296875 1.375q2.984375 1.359375 4.53125 4.34375q1.546875 2.984375 1.546875 7.859375q0 7.078125 -3.453125 10.25q-3.453125 3.171875 -9.921875 3.171875zm0 -6.5q2.921875 0 4.25 -1.640625q1.328125 -1.65625 1.328125 -5.28125q0 -3.859375 -1.328125 -5.453125q-1.328125 -1.609375 -4.25 -1.609375q-2.921875 0 -4.25 1.609375q-1.3125 1.59375 -1.3125 5.453125q0 3.625 1.3125 5.28125q1.328125 1.640625 4.25 1.640625zm16.222168 6.09375l0 -26.1875l7.640625 0l0 9.234375l7.9375 -9.234375l8.6875 0l-9.21875 10.734375l9.875 15.453125l-8.125 0l-6.46875 -10.578125l-2.6875 3.015625l0 7.5625l-7.640625 0zm25.125793 0l10.046875 -26.1875l8.09375 0l10.03125 26.1875l-7.96875 0l-2.1875 -5.5625l-7.890625 0l-2.15625 5.5625l-7.96875 0zm11.140625 -11.0625l5.859375 0l-2.9375 -7.6875l-2.921875 7.6875zm19.879517 11.0625l0 -26.1875l7.640625 0l0 26.1875l-7.640625 0z" fill-rule="nonzero"/><path fill="#000000" d="m27.884413 544.6295q-4.25 0 -6.421875 -2.3125q-2.171875 -2.328125 -2.171875 -6.265625q0 -2.828125 0.921875 -4.859375q0.921875 -2.046875 2.8125 -3.15625q1.890625 -1.109375 4.828125 -1.109375q1.5 0 2.734375 0.234375q1.234375 0.21875 2.296873 0.59375l0 2.53125q-1.0624981 -0.421875 -2.281248 -0.640625q-1.203125 -0.234375 -2.53125 -0.234375q-3.203125 0 -4.53125 1.703125q-1.3125 1.703125 -1.3125 4.9375q0 3.015625 1.4375 4.578125q1.4375 1.546875 4.453125 1.546875q1.234375 0 2.46875 -0.1875q1.234375 -0.203125 2.328123 -0.640625l0 2.5625q-1.0624981 0.34375 -2.312498 0.53125q-1.234375 0.1875 -2.71875 0.1875zm14.177473 0q-3.3125 0 -5.125 -1.625q-1.8125 -1.625 -1.8125 -4.984375q0 -3.046875 1.546875 -4.796875q1.546875 -1.765625 4.703125 -1.765625q2.875 0 4.328125 1.515625q1.453125 1.5 1.453125 3.875l0 2.34375l-9.25 0q0.203125 1.84375 1.328125 2.53125q1.125 0.6875 3.40625 0.6875q0.96875 0 1.984375 -0.171875q1.015625 -0.1875 1.75 -0.484375l0 2.125q-0.84375 0.375 -1.953125 0.5625q-1.109375 0.1875 -2.359375 0.1875zm-4.15625 -7.328125l6.6875 0l0 -0.875q0 -1.3125 -0.71875 -2.046875q-0.71875 -0.734375 -2.421875 -0.734375q-2.03125 0 -2.796875 0.890625q-0.75 0.875 -0.75 2.765625zm12.064346 7.0625l0 -12.640625l2.671875 0l0.140625 1.34375q0.84375 -0.671875 2.03125 -1.140625q1.1875 -0.46875 2.625 -0.46875q2.453125 0 3.5625 1.15625q1.125 1.140625 1.125 3.5625l0 8.1875l-2.875 0l0 -8.046875q0 -1.46875 -0.609375 -2.046875q-0.59375 -0.59375 -2.234375 -0.59375q-0.984375 0 -1.9375 0.40625q-0.953125 0.390625 -1.59375 1.03125l0 9.25l-2.90625 0zm20.235386 0.265625q-2.015625 0 -3.015625 -1.078125q-1.0 -1.078125 -1.0 -2.953125l0 -6.609375l-1.875 0l0 -2.265625l1.875 0l0 -2.90625l2.875 -0.875l0 3.78125l3.359375 0l-0.1875 2.265625l-3.171875 0l0 6.453125q0 1.09375 0.5 1.53125q0.515625 0.4375 1.65625 0.4375q0.71875 0 1.515625 -0.265625l0 2.0625q-1.03125 0.421875 -2.53125 0.421875zm4.74144 -0.265625l0 -12.640625l2.671875 0l0.15625 1.46875q0.90625 -0.578125 2.15625 -1.0625q1.265625 -0.484375 2.484375 -0.671875l0 2.21875q-0.75 0.125 -1.625 0.390625q-0.859375 0.25 -1.625 0.5625q-0.765625 0.296875 -1.3125 0.625l0 9.109375l-2.90625 0zm15.098724 0.265625q-3.421875 0 -5.015625 -1.703125q-1.578125 -1.703125 -1.578125 -4.875q0 -3.171875 1.59375 -4.875q1.609375 -1.71875 5.0 -1.71875q3.40625 0 5.0 1.71875q1.609375 1.703125 1.609375 4.875q0 3.171875 -1.59375 4.875q-1.578125 1.703125 -5.015625 1.703125zm0 -2.453125q2.0 0 2.828125 -0.96875q0.84375 -0.96875 0.84375 -3.15625q0 -2.1875 -0.84375 -3.140625q-0.828125 -0.96875 -2.828125 -0.96875q-1.984375 0 -2.828125 0.96875q-0.828125 0.953125 -0.828125 3.140625q0 2.1875 0.828125 3.15625q0.84375 0.96875 2.828125 0.96875zm20.790024 2.453125q-1.703125 0 -3.015625 -0.578125q-1.3125 -0.59375 -2.03125 -1.953125q-0.71875 -1.359375 -0.71875 -3.65625q0 -2.265625 0.765625 -3.8125q0.78125 -1.5625 2.15625 -2.359375q1.375 -0.8125 3.109375 -0.8125q1.140625 0 2.03125 0.265625q0.90625 0.265625 1.71875 0.828125l0 -6.15625l2.90625 0l0 17.96875l-2.46875 0l-0.1875 -1.25q-0.859375 0.765625 -1.875 1.140625q-1.0 0.375 -2.390625 0.375zm0.765625 -2.1875q1.953125 0 3.25 -1.328125l0 -6.3125q-1.25 -1.125 -3.140625 -1.125q-1.84375 0 -2.78125 1.234375q-0.921875 1.21875 -0.921875 3.5625q0 2.265625 0.859375 3.125q0.875 0.84375 2.734375 0.84375zm15.653473 2.1875q-3.3125 0 -5.125 -1.625q-1.8125 -1.625 -1.8125 -4.984375q0 -3.046875 1.546875 -4.796875q1.546875 -1.765625 4.703125 -1.765625q2.875 0 4.328125 1.515625q1.453125 1.5 1.453125 3.875l0 2.34375l-9.25 0q0.203125 1.84375 1.328125 2.53125q1.125 0.6875 3.40625 0.6875q0.96875 0 1.984375 -0.171875q1.015625 -0.1875 1.75 -0.484375l0 2.125q-0.84375 0.375 -1.953125 0.5625q-1.109375 0.1875 -2.359375 0.1875zm-4.15625 -7.328125l6.6875 0l0 -0.875q0 -1.3125 -0.71875 -2.046875q-0.71875 -0.734375 -2.421875 -0.734375q-2.03125 0 -2.796875 0.890625q-0.75 0.875 -0.75 2.765625zm23.429642 7.328125q-1.703125 0 -3.015625 -0.578125q-1.3125 -0.59375 -2.03125 -1.953125q-0.71875 -1.359375 -0.71875 -3.65625q0 -2.265625 0.765625 -3.8125q0.78125 -1.5625 2.15625 -2.359375q1.375 -0.8125 3.109375 -0.8125q1.140625 0 2.03125 0.265625q0.90625 0.265625 1.71875 0.828125l0 -6.15625l2.90625 0l0 17.96875l-2.46875 0l-0.1875 -1.25q-0.859375 0.765625 -1.875 1.140625q-1.0 0.375 -2.390625 0.375zm0.765625 -2.1875q1.953125 0 3.25 -1.328125l0 -6.3125q-1.25 -1.125 -3.140625 -1.125q-1.84375 0 -2.78125 1.234375q-0.921875 1.21875 -0.921875 3.5625q0 2.265625 0.859375 3.125q0.875 0.84375 2.734375 0.84375zm10.5920105 -13.359375l0 -2.390625l3.171875 0l0 2.390625l-3.171875 0zm0.234375 15.28125l0 -10.421875l-1.921875 0l0.265625 -2.21875l4.5625 0l0 12.640625l-2.90625 0zm7.06575 0l0 -10.375l-1.84375 0l0 -2.265625l1.84375 0l0 -1.546875q0 -1.890625 1.046875 -3.046875q1.0625 -1.15625 3.140625 -1.15625q0.765625 0 1.40625 0.125q0.640625 0.109375 1.171875 0.328125l0 2.078125q-0.828125 -0.296875 -1.671875 -0.296875q-1.25 0 -1.734375 0.453125q-0.484375 0.453125 -0.484375 1.546875l0 1.515625l3.3125 0l-0.140625 2.265625l-3.171875 0l0 10.375l-2.875 0zm13.377472 0.265625q-2.265625 0 -3.484375 -1.25q-1.203125 -1.25 -1.203125 -3.6875l0 -7.96875l2.90625 0l0 7.96875q0 1.421875 0.6875 2.09375q0.703125 0.65625 2.140625 0.65625q1.0625 0 1.96875 -0.390625q0.90625 -0.40625 1.578125 -1.078125l0 -9.25l2.875 0l0 12.640625l-2.640625 0l-0.140625 -1.3125q-0.84375 0.671875 -2.015625 1.125q-1.171875 0.453125 -2.671875 0.453125zm15.063507 0q-1.3125 0 -2.5 -0.1875q-1.171875 -0.1875 -1.953125 -0.453125l0 -2.453125q0.90625 0.34375 2.0 0.53125q1.09375 0.1875 2.078125 0.1875q1.5 0 2.140625 -0.265625q0.640625 -0.265625 0.640625 -1.03125q0 -0.5625 -0.390625 -0.875q-0.390625 -0.328125 -1.15625 -0.59375q-0.75 -0.265625 -1.921875 -0.640625q-1.125 -0.375 -1.953125 -0.8125q-0.828125 -0.4375 -1.28125 -1.125q-0.453125 -0.703125 -0.453125 -1.828125q0 -1.734375 1.25 -2.671875q1.265625 -0.953125 4.03125 -0.953125q1.09375 0 2.078125 0.171875q0.984375 0.15625 1.6875 0.390625l0 2.421875q-0.75 -0.28125 -1.640625 -0.4375q-0.890625 -0.171875 -1.671875 -0.171875q-1.390625 0 -2.09375 0.25q-0.703125 0.234375 -0.703125 0.953125q0 0.75 0.734375 1.0625q0.734375 0.296875 2.359375 0.828125q1.484375 0.453125 2.359375 0.96875q0.890625 0.5 1.28125 1.203125q0.390625 0.703125 0.390625 1.828125q0 1.859375 -1.359375 2.78125q-1.359375 0.921875 -3.953125 0.921875zm15.890335 -14.578125q-0.71875 0 -1.4375 -0.265625q-0.703125 -0.265625 -1.359375 -0.515625q-0.640625 -0.265625 -1.265625 -0.265625q-0.6875 0 -1.28125 0.21875q-0.578125 0.21875 -1.03125 0.75l0 -2.140625q0.34375 -0.375 0.96875 -0.578125q0.625 -0.21875 1.296875 -0.21875q0.78125 0 1.4375 0.265625q0.671875 0.25 1.3125 0.515625q0.640625 0.265625 1.328125 0.265625q1.390625 0 2.140625 -0.984375l0 2.125q-0.265625 0.34375 -0.828125 0.59375q-0.5625 0.234375 -1.28125 0.234375zm-4.1875 14.578125q-1.203125 0 -2.234375 -0.421875q-1.015625 -0.4375 -1.640625 -1.296875q-0.609375 -0.859375 -0.609375 -2.140625q0 -1.8125 1.234375 -2.921875q1.25 -1.109375 3.828125 -1.109375l4.0625 0l0 -0.5625q0 -0.90625 -0.28125 -1.4375q-0.28125 -0.53125 -1.015625 -0.765625q-0.734375 -0.25 -2.140625 -0.25q-2.25 0 -4.1875 0.671875l0 -2.15625q0.84375 -0.34375 2.0625 -0.5625q1.234375 -0.21875 2.65625 -0.21875q2.765625 0 4.21875 1.125q1.453125 1.125 1.453125 3.65625l0 8.125l-2.46875 0l-0.1875 -1.28125q-0.78125 0.75 -1.921875 1.15625q-1.125 0.390625 -2.828125 0.390625zm0.765625 -2.078125q1.3125 0 2.28125 -0.4375q0.984375 -0.4375 1.59375 -1.1875l0 -2.21875l-4.0 0q-1.28125 0 -1.859375 0.5q-0.5625 0.484375 -0.5625 1.5q0 0.984375 0.65625 1.421875q0.671875 0.421875 1.890625 0.421875zm15.924667 2.078125q-3.421875 0 -5.015625 -1.703125q-1.578125 -1.703125 -1.578125 -4.875q0 -3.171875 1.59375 -4.875q1.609375 -1.71875 5.0 -1.71875q3.40625 0 5.0 1.71875q1.609375 1.703125 1.609375 4.875q0 3.171875 -1.59375 4.875q-1.578125 1.703125 -5.015625 1.703125zm0 -2.453125q2.0 0 2.828125 -0.96875q0.84375 -0.96875 0.84375 -3.15625q0 -2.1875 -0.84375 -3.140625q-0.828125 -0.96875 -2.828125 -0.96875q-1.984375 0 -2.828125 0.96875q-0.828125 0.953125 -0.828125 3.140625q0 2.1875 0.828125 3.15625q0.84375 0.96875 2.828125 0.96875zm20.790024 2.453125q-1.703125 0 -3.015625 -0.578125q-1.3125 -0.59375 -2.03125 -1.953125q-0.71875 -1.359375 -0.71875 -3.65625q0 -2.265625 0.765625 -3.8125q0.78125 -1.5625 2.15625 -2.359375q1.375 -0.8125 3.109375 -0.8125q1.140625 0 2.03125 0.265625q0.90625 0.265625 1.71875 0.828125l0 -6.15625l2.90625 0l0 17.96875l-2.46875 0l-0.1875 -1.25q-0.859375 0.765625 -1.875 1.140625q-1.0 0.375 -2.390625 0.375zm0.765625 -2.1875q1.953125 0 3.25 -1.328125l0 -6.3125q-1.25 -1.125 -3.140625 -1.125q-1.84375 0 -2.78125 1.234375q-0.921875 1.21875 -0.921875 3.5625q0 2.265625 0.859375 3.125q0.875 0.84375 2.734375 0.84375zm15.653473 2.1875q-3.3125 0 -5.125 -1.625q-1.8125 -1.625 -1.8125 -4.984375q0 -3.046875 1.546875 -4.796875q1.546875 -1.765625 4.703125 -1.765625q2.875 0 4.328125 1.515625q1.453125 1.5 1.453125 3.875l0 2.34375l-9.25 0q0.203125 1.84375 1.328125 2.53125q1.125 0.6875 3.40625 0.6875q0.96875 0 1.984375 -0.171875q1.015625 -0.1875 1.75 -0.484375l0 2.125q-0.84375 0.375 -1.953125 0.5625q-1.109375 0.1875 -2.359375 0.1875zm-4.15625 -7.328125l6.6875 0l0 -0.875q0 -1.3125 -0.71875 -2.046875q-0.71875 -0.734375 -2.421875 -0.734375q-2.03125 0 -2.796875 0.890625q-0.75 0.875 -0.75 2.765625zm17.695251 7.0625l6.5625 -17.171875l3.25 0l6.5 17.171875l-2.984375 0l-1.703125 -4.421875l-6.90625 0l-1.703125 4.421875l-3.015625 0zm5.171875 -6.65625l5.96875 0l-2.984375 -7.875l-2.984375 7.875zm13.987427 6.65625l0 -12.640625l2.671875 0l0.15625 1.46875q0.90625 -0.578125 2.15625 -1.0625q1.265625 -0.484375 2.484375 -0.671875l0 2.21875q-0.75 0.125 -1.625 0.390625q-0.859375 0.25 -1.625 0.5625q-0.765625 0.296875 -1.3125 0.625l0 9.109375l-2.90625 0zm14.397675 0.265625q-2.015625 0 -3.015625 -1.078125q-1.0 -1.078125 -1.0 -2.953125l0 -6.609375l-1.875 0l0 -2.265625l1.875 0l0 -2.90625l2.875 -0.875l0 3.78125l3.359375 0l-0.1875 2.265625l-3.171875 0l0 6.453125q0 1.09375 0.5 1.53125q0.515625 0.4375 1.65625 0.4375q0.71875 0 1.515625 -0.265625l0 2.0625q-1.03125 0.421875 -2.53125 0.421875zm11.147705 0q-3.3125 0 -5.125 -1.625q-1.8125 -1.625 -1.8125 -4.984375q0 -3.046875 1.546875 -4.796875q1.546875 -1.765625 4.703125 -1.765625q2.875 0 4.328125 1.515625q1.453125 1.5 1.453125 3.875l0 2.34375l-9.25 0q0.203125 1.84375 1.328125 2.53125q1.125 0.6875 3.40625 0.6875q0.96875 0 1.984375 -0.171875q1.015625 -0.1875 1.75 -0.484375l0 2.125q-0.84375 0.375 -1.953125 0.5625q-1.109375 0.1875 -2.359375 0.1875zm-4.15625 -7.328125l6.6875 0l0 -0.875q0 -1.3125 -0.71875 -2.046875q-0.71875 -0.734375 -2.421875 -0.734375q-2.03125 0 -2.796875 0.890625q-0.75 0.875 -0.75 2.765625zm16.14978 7.328125q-1.3125 0 -2.5 -0.1875q-1.171875 -0.1875 -1.953125 -0.453125l0 -2.453125q0.90625 0.34375 2.0 0.53125q1.09375 0.1875 2.078125 0.1875q1.5 0 2.140625 -0.265625q0.640625 -0.265625 0.640625 -1.03125q0 -0.5625 -0.390625 -0.875q-0.390625 -0.328125 -1.15625 -0.59375q-0.75 -0.265625 -1.921875 -0.640625q-1.125 -0.375 -1.953125 -0.8125q-0.828125 -0.4375 -1.28125 -1.125q-0.453125 -0.703125 -0.453125 -1.828125q0 -1.734375 1.25 -2.671875q1.265625 -0.953125 4.03125 -0.953125q1.09375 0 2.078125 0.171875q0.984375 0.15625 1.6875 0.390625l0 2.421875q-0.75 -0.28125 -1.640625 -0.4375q-0.890625 -0.171875 -1.671875 -0.171875q-1.390625 0 -2.09375 0.25q-0.703125 0.234375 -0.703125 0.953125q0 0.75 0.734375 1.0625q0.734375 0.296875 2.359375 0.828125q1.484375 0.453125 2.359375 0.96875q0.890625 0.5 1.28125 1.203125q0.390625 0.703125 0.390625 1.828125q0 1.859375 -1.359375 2.78125q-1.359375 0.921875 -3.953125 0.921875zm20.68689 0q-3.3125 0 -5.125 -1.625q-1.8125 -1.625 -1.8125 -4.984375q0 -3.046875 1.546875 -4.796875q1.546875 -1.765625 4.703125 -1.765625q2.875 0 4.328125 1.515625q1.453125 1.5 1.453125 3.875l0 2.34375l-9.25 0q0.203125 1.84375 1.328125 2.53125q1.125 0.6875 3.40625 0.6875q0.96875 0 1.984375 -0.171875q1.015625 -0.1875 1.75 -0.484375l0 2.125q-0.84375 0.375 -1.953125 0.5625q-1.109375 0.1875 -2.359375 0.1875zm-4.15625 -7.328125l6.6875 0l0 -0.875q0 -1.3125 -0.71875 -2.046875q-0.71875 -0.734375 -2.421875 -0.734375q-2.03125 0 -2.796875 0.890625q-0.75 0.875 -0.75 2.765625zm26.257751 7.328125q-4.25 0 -6.421875 -2.3125q-2.171875 -2.328125 -2.171875 -6.265625q0 -2.828125 0.921875 -4.859375q0.921875 -2.046875 2.8125 -3.15625q1.890625 -1.109375 4.828125 -1.109375q1.5 0 2.734375 0.234375q1.234375 0.21875 2.296875 0.59375l0 2.53125q-1.0625 -0.421875 -2.28125 -0.640625q-1.203125 -0.234375 -2.53125 -0.234375q-3.203125 0 -4.53125 1.703125q-1.3125 1.703125 -1.3125 4.9375q0 3.015625 1.4375 4.578125q1.4375 1.546875 4.453125 1.546875q1.234375 0 2.46875 -0.1875q1.234375 -0.203125 2.328125 -0.640625l0 2.5625q-1.0625 0.34375 -2.3125 0.53125q-1.234375 0.1875 -2.71875 0.1875zm12.413727 0q-2.265625 0 -3.484375 -1.25q-1.203125 -1.25 -1.203125 -3.6875l0 -7.96875l2.90625 0l0 7.96875q0 1.421875 0.6875 2.09375q0.703125 0.65625 2.140625 0.65625q1.0625 0 1.96875 -0.390625q0.90625 -0.40625 1.578125 -1.078125l0 -9.25l2.875 0l0 12.640625l-2.640625 0l-0.140625 -1.3125q-0.84375 0.671875 -2.015625 1.125q-1.171875 0.453125 -2.671875 0.453125zm14.001007 0q-1.546875 0 -2.359375 -0.75q-0.796875 -0.765625 -0.796875 -2.53125l0 -14.953125l2.90625 0l0 14.6875q0 0.75 0.265625 1.015625q0.28125 0.265625 0.8125 0.265625q0.640625 0 1.21875 -0.15625l0 2.109375q-0.5 0.1875 -0.96875 0.25q-0.46875 0.0625 -1.078125 0.0625zm8.468933 0q-2.015625 0 -3.015625 -1.078125q-1.0 -1.078125 -1.0 -2.953125l0 -6.609375l-1.875 0l0 -2.265625l1.875 0l0 -2.90625l2.875 -0.875l0 3.78125l3.359375 0l-0.1875 2.265625l-3.171875 0l0 6.453125q0 1.09375 0.5 1.53125q0.515625 0.4375 1.65625 0.4375q0.71875 0 1.515625 -0.265625l0 2.0625q-1.03125 0.421875 -2.53125 0.421875zm9.303955 0q-2.265625 0 -3.484375 -1.25q-1.203125 -1.25 -1.203125 -3.6875l0 -7.96875l2.90625 0l0 7.96875q0 1.421875 0.6875 2.09375q0.703125 0.65625 2.140625 0.65625q1.0625 0 1.96875 -0.390625q0.90625 -0.40625 1.578125 -1.078125l0 -9.25l2.875 0l0 12.640625l-2.640625 0l-0.140625 -1.3125q-0.84375 0.671875 -2.015625 1.125q-1.171875 0.453125 -2.671875 0.453125zm10.844757 -0.265625l0 -12.640625l2.671875 0l0.15625 1.46875q0.90625 -0.578125 2.15625 -1.0625q1.265625 -0.484375 2.484375 -0.671875l0 2.21875q-0.75 0.125 -1.625 0.390625q-0.859375 0.25 -1.625 0.5625q-0.765625 0.296875 -1.3125 0.625l0 9.109375l-2.90625 0zm12.722687 0.265625q-1.203125 0 -2.234375 -0.421875q-1.015625 -0.4375 -1.640625 -1.296875q-0.609375 -0.859375 -0.609375 -2.140625q0 -1.8125 1.234375 -2.921875q1.25 -1.109375 3.828125 -1.109375l4.0625 0l0 -0.5625q0 -0.90625 -0.28125 -1.4375q-0.28125 -0.53125 -1.015625 -0.765625q-0.734375 -0.25 -2.140625 -0.25q-2.25 0 -4.1875 0.671875l0 -2.15625q0.84375 -0.34375 2.0625 -0.5625q1.234375 -0.21875 2.65625 -0.21875q2.765625 0 4.21875 1.125q1.453125 1.125 1.453125 3.65625l0 8.125l-2.46875 0l-0.1875 -1.28125q-0.78125 0.75 -1.921875 1.15625q-1.125 0.390625 -2.828125 0.390625zm0.765625 -2.078125q1.3125 0 2.28125 -0.4375q0.984375 -0.4375 1.59375 -1.1875l0 -2.21875l-4.0 0q-1.28125 0 -1.859375 0.5q-0.5625 0.484375 -0.5625 1.5q0 0.984375 0.65625 1.421875q0.671875 0.421875 1.890625 0.421875zm21.227478 2.078125q-1.703125 0 -3.015625 -0.578125q-1.3125 -0.59375 -2.03125 -1.953125q-0.71875 -1.359375 -0.71875 -3.65625q0 -2.265625 0.765625 -3.8125q0.78125 -1.5625 2.15625 -2.359375q1.375 -0.8125 3.109375 -0.8125q1.140625 0 2.03125 0.265625q0.90625 0.265625 1.71875 0.828125l0 -6.15625l2.90625 0l0 17.96875l-2.46875 0l-0.1875 -1.25q-0.859375 0.765625 -1.875 1.140625q-1.0 0.375 -2.390625 0.375zm0.765625 -2.1875q1.953125 0 3.25 -1.328125l0 -6.3125q-1.25 -1.125 -3.140625 -1.125q-1.84375 0 -2.78125 1.234375q-0.921875 1.21875 -0.921875 3.5625q0 2.265625 0.859375 3.125q0.875 0.84375 2.734375 0.84375zm15.309723 2.1875q-3.421875 0 -5.015625 -1.703125q-1.578125 -1.703125 -1.578125 -4.875q0 -3.171875 1.59375 -4.875q1.609375 -1.71875 5.0 -1.71875q3.40625 0 5.0 1.71875q1.609375 1.703125 1.609375 4.875q0 3.171875 -1.59375 4.875q-1.578125 1.703125 -5.015625 1.703125zm0 -2.453125q2.0 0 2.828125 -0.96875q0.84375 -0.96875 0.84375 -3.15625q0 -2.1875 -0.84375 -3.140625q-0.828125 -0.96875 -2.828125 -0.96875q-1.984375 0 -2.828125 0.96875q-0.828125 0.953125 -0.828125 3.140625q0 2.1875 0.828125 3.15625q0.84375 0.96875 2.828125 0.96875zm18.227509 2.453125q-2.1875 0 -3.734375 -0.609375l0 -2.453125q0.640625 0.265625 1.5 0.4375q0.875 0.171875 1.734375 0.171875q1.78125 0 2.484375 -0.734375q0.703125 -0.734375 0.703125 -2.359375l0 -11.890625l2.90625 0l0 12.375q0 2.453125 -1.40625 3.765625q-1.390625 1.296875 -4.1875 1.296875zm12.77005 0q-1.203125 0 -2.234375 -0.421875q-1.015625 -0.4375 -1.640625 -1.296875q-0.609375 -0.859375 -0.609375 -2.140625q0 -1.8125 1.234375 -2.921875q1.25 -1.109375 3.828125 -1.109375l4.0625305 0l0 -0.5625q0 -0.90625 -0.28125 -1.4375q-0.28125 -0.53125 -1.015625 -0.765625q-0.7344055 -0.25 -2.1406555 -0.25q-2.25 0 -4.1875 0.671875l0 -2.15625q0.84375 -0.34375 2.0625 -0.5625q1.234375 -0.21875 2.65625 -0.21875q2.7656555 0 4.2187805 1.125q1.453125 1.125 1.453125 3.65625l0 8.125l-2.46875 0l-0.1875 -1.28125q-0.78125 0.75 -1.9219055 1.15625q-1.125 0.390625 -2.828125 0.390625zm0.765625 -2.078125q1.3125 0 2.2812805 -0.4375q0.984375 -0.4375 1.59375 -1.1875l0 -2.21875l-4.0000305 0q-1.28125 0 -1.859375 0.5q-0.5625 0.484375 -0.5625 1.5q0 0.984375 0.65625 1.421875q0.671875 0.421875 1.890625 0.421875zm9.862152 7.5625l0 -18.390625l2.515625 0l0.15625 1.265625q0.859375 -0.78125 1.859375 -1.15625q1.015625 -0.375 2.40625 -0.375q2.71875 0 4.234375 1.484375q1.53125 1.484375 1.53125 4.890625q0 3.40625 -1.578125 5.109375q-1.578125 1.6875 -4.296875 1.6875q-2.296875 0 -3.921875 -1.0625l0 6.546875l-2.90625 0zm6.078125 -7.671875q3.6875 0 3.6875 -4.640625q0 -2.234375 -0.828125 -3.171875q-0.828125 -0.953125 -2.765625 -0.953125q-1.953125 0 -3.265625 1.328125l0 6.328125q0.625 0.5 1.375 0.8125q0.765625 0.296875 1.796875 0.296875zm17.576416 -12.390625q-0.71875 0 -1.4375 -0.265625q-0.703125 -0.265625 -1.359375 -0.515625q-0.640625 -0.265625 -1.265625 -0.265625q-0.6875 0 -1.28125 0.21875q-0.578125 0.21875 -1.03125 0.75l0 -2.140625q0.34375 -0.375 0.96875 -0.578125q0.625 -0.21875 1.296875 -0.21875q0.78125 0 1.4375 0.265625q0.671875 0.25 1.3125 0.515625q0.640625 0.265625 1.328125 0.265625q1.390625 0 2.140625 -0.984375l0 2.125q-0.265625 0.34375 -0.828125 0.59375q-0.5625 0.234375 -1.28125 0.234375zm-4.1875 14.578125q-1.203125 0 -2.234375 -0.421875q-1.015625 -0.4375 -1.640625 -1.296875q-0.609375 -0.859375 -0.609375 -2.140625q0 -1.8125 1.234375 -2.921875q1.25 -1.109375 3.828125 -1.109375l4.0625 0l0 -0.5625q0 -0.90625 -0.28125 -1.4375q-0.28125 -0.53125 -1.015625 -0.765625q-0.734375 -0.25 -2.140625 -0.25q-2.25 0 -4.1875 0.671875l0 -2.15625q0.84375 -0.34375 2.0625 -0.5625q1.234375 -0.21875 2.65625 -0.21875q2.765625 0 4.21875 1.125q1.453125 1.125 1.453125 3.65625l0 8.125l-2.46875 0l-0.1875 -1.28125q-0.78125 0.75 -1.921875 1.15625q-1.125 0.390625 -2.828125 0.390625zm0.765625 -2.078125q1.3125 0 2.28125 -0.4375q0.984375 -0.4375 1.59375 -1.1875l0 -2.21875l-4.0 0q-1.28125 0 -1.859375 0.5q-0.5625 0.484375 -0.5625 1.5q0 0.984375 0.65625 1.421875q0.671875 0.421875 1.890625 0.421875zm15.924683 2.078125q-3.421875 0 -5.015625 -1.703125q-1.578125 -1.703125 -1.578125 -4.875q0 -3.171875 1.59375 -4.875q1.609375 -1.71875 5.0 -1.71875q3.40625 0 5.0 1.71875q1.609375 1.703125 1.609375 4.875q0 3.171875 -1.59375 4.875q-1.578125 1.703125 -5.015625 1.703125zm0 -2.453125q2.0 0 2.828125 -0.96875q0.84375 -0.96875 0.84375 -3.15625q0 -2.1875 -0.84375 -3.140625q-0.828125 -0.96875 -2.828125 -0.96875q-1.984375 0 -2.828125 0.96875q-0.828125 0.953125 -0.828125 3.140625q0 2.1875 0.828125 3.15625q0.84375 0.96875 2.828125 0.96875z" fill-rule="nonzero"/><path fill="#000000" d="m192.12502 582.7639l0 -21.46875l10.40625 0q3.203125 0 4.734375 1.5q1.53125 1.5 1.53125 4.234375q0 1.734375 -0.703125 2.921875q-0.703125 1.1875 -1.859375 1.78125q1.5625 0.4375 2.46875 1.5625q0.921875 1.109375 0.921875 3.265625q0 3.140625 -1.6875 4.671875q-1.671875 1.53125 -4.9375 1.53125l-10.875 0zm3.640625 -12.296875l6.265625 0q1.828125 0 2.609375 -0.84375q0.78125 -0.859375 0.78125 -2.296875q0 -1.65625 -0.796875 -2.46875q-0.796875 -0.828125 -3.0 -0.828125l-5.859375 0l0 6.4375zm0 9.625l6.46875 0q1.921875 0 2.828125 -0.8125q0.90625 -0.8125 0.90625 -2.84375q0 -1.671875 -0.890625 -2.484375q-0.875 -0.8125 -3.21875 -0.8125l-6.09375 0l0 6.953125zm22.326874 3.0q-1.5 0 -2.78125 -0.53125q-1.28125 -0.53125 -2.046875 -1.609375q-0.765625 -1.09375 -0.765625 -2.6875q0 -2.265625 1.546875 -3.640625q1.546875 -1.390625 4.78125 -1.390625l5.0625 0l0 -0.703125q0 -1.125 -0.359375 -1.796875q-0.34375 -0.671875 -1.265625 -0.96875q-0.90625 -0.296875 -2.671875 -0.296875q-2.796875 0 -5.234375 0.828125l0 -2.703125q1.0625 -0.421875 2.59375 -0.6875q1.546875 -0.265625 3.3125 -0.265625q3.46875 0 5.28125 1.40625q1.8125 1.390625 1.8125 4.546875l0 10.171875l-3.09375 0l-0.234375 -1.59375q-0.96875 0.921875 -2.390625 1.421875q-1.40625 0.5 -3.546875 0.5zm0.96875 -2.59375q1.625 0 2.84375 -0.546875q1.21875 -0.546875 1.984375 -1.484375l0 -2.765625l-5.0 0q-1.59375 0 -2.3125 0.625q-0.71875 0.609375 -0.71875 1.875q0 1.234375 0.828125 1.765625q0.84375 0.53125 2.375 0.53125zm12.3242035 2.265625l0 -22.46875l3.640625 0l0 8.203125q1.03125 -0.828125 2.453125 -1.34375q1.4375 -0.515625 3.25 -0.515625q3.0 0 4.421875 1.4375q1.4375 1.421875 1.4375 4.453125l0 10.234375l-3.59375 0l0 -10.0625q0 -1.828125 -0.796875 -2.5625q-0.78125 -0.734375 -2.703125 -0.734375q-1.203125 0 -2.4375 0.515625q-1.234375 0.515625 -2.03125 1.34375l0 11.5l-3.640625 0zm20.60736 -19.09375l0 -3.0l3.9687653 0l0 3.0l-3.9687653 0zm0.296875 19.09375l0 -13.03125l-2.40625 0l0.34375 -2.765625l5.6875 0l0 15.796875l-3.625 0zm12.795349 0.328125q-1.5 0 -2.78125 -0.53125q-1.28125 -0.53125 -2.046875 -1.609375q-0.765625 -1.09375 -0.765625 -2.6875q0 -2.265625 1.546875 -3.640625q1.546875 -1.390625 4.78125 -1.390625l5.0625 0l0 -0.703125q0 -1.125 -0.359375 -1.796875q-0.34375 -0.671875 -1.265625 -0.96875q-0.90625 -0.296875 -2.671875 -0.296875q-2.796875 0 -5.234375 0.828125l0 -2.703125q1.0625 -0.421875 2.59375 -0.6875q1.546875 -0.265625 3.3125 -0.265625q3.46875 0 5.28125 1.40625q1.8125 1.390625 1.8125 4.546875l0 10.171875l-3.09375 0l-0.234375 -1.59375q-0.96875 0.921875 -2.390625 1.421875q-1.40625 0.5 -3.546875 0.5zm0.96875 -2.59375q1.625 0 2.84375 -0.546875q1.21875 -0.546875 1.984375 -1.484375l0 -2.765625l-5.0 0q-1.59375 0 -2.3125 0.625q-0.71875 0.609375 -0.71875 1.875q0 1.234375 0.828125 1.765625q0.84375 0.53125 2.375 0.53125zm19.333405 -5.296875l0 -2.828125l12.734375 0l0 2.828125l-12.734375 0zm23.91922 7.5625l0 -21.46875l10.40625 0q3.203125 0 4.734375 1.5q1.53125 1.5 1.53125 4.234375q0 1.734375 -0.703125 2.921875q-0.703125 1.1875 -1.859375 1.78125q1.5625 0.4375 2.46875 1.5625q0.921875 1.109375 0.921875 3.265625q0 3.140625 -1.6875 4.671875q-1.671875 1.53125 -4.9375 1.53125l-10.875 0zm3.640625 -12.296875l6.265625 0q1.828125 0 2.609375 -0.84375q0.78125 -0.859375 0.78125 -2.296875q0 -1.65625 -0.796875 -2.46875q-0.796875 -0.828125 -3.0 -0.828125l-5.859375 0l0 6.4375zm0 9.625l6.46875 0q1.921875 0 2.828125 -0.8125q0.90625 -0.8125 0.90625 -2.84375q0 -1.671875 -0.890625 -2.484375q-0.875 -0.8125 -3.21875 -0.8125l-6.09375 0l0 6.953125zm17.389404 2.671875l0 -15.796875l3.34375 0l0.1875 1.828125q1.140625 -0.734375 2.703125 -1.328125q1.5625 -0.59375 3.109375 -0.828125l0 2.765625q-0.9375 0.15625 -2.03125 0.484375q-1.078125 0.3125 -2.046875 0.703125q-0.953125 0.375 -1.625 0.78125l0 11.390625l-3.640625 0zm15.902252 0.328125q-1.5 0 -2.78125 -0.53125q-1.28125 -0.53125 -2.046875 -1.609375q-0.765625 -1.09375 -0.765625 -2.6875q0 -2.265625 1.546875 -3.640625q1.546875 -1.390625 4.78125 -1.390625l5.0625 0l0 -0.703125q0 -1.125 -0.359375 -1.796875q-0.34375 -0.671875 -1.265625 -0.96875q-0.90625 -0.296875 -2.671875 -0.296875q-2.796875 0 -5.234375 0.828125l0 -2.703125q1.0625 -0.421875 2.59375 -0.6875q1.546875 -0.265625 3.3125 -0.265625q3.46875 0 5.28125 1.40625q1.8125 1.390625 1.8125 4.546875l0 10.171875l-3.09375 0l-0.234375 -1.59375q-0.96875 0.921875 -2.390625 1.421875q-1.40625 0.5 -3.546875 0.5zm0.96875 -2.59375q1.625 0 2.84375 -0.546875q1.21875 -0.546875 1.984375 -1.484375l0 -2.765625l-5.0 0q-1.59375 0 -2.3125 0.625q-0.71875 0.609375 -0.71875 1.875q0 1.234375 0.828125 1.765625q0.84375 0.53125 2.375 0.53125zm17.589813 2.59375q-1.625 0 -3.109375 -0.234375q-1.484375 -0.234375 -2.453125 -0.5625l0 -3.0625q1.140625 0.4375 2.5 0.671875q1.375 0.21875 2.609375 0.21875q1.859375 0 2.65625 -0.328125q0.796875 -0.328125 0.796875 -1.296875q0 -0.703125 -0.484375 -1.09375q-0.46875 -0.40625 -1.421875 -0.734375q-0.953125 -0.34375 -2.421875 -0.8125q-1.40625 -0.453125 -2.4375 -1.0q-1.03125 -0.5625 -1.59375 -1.421875q-0.5625 -0.875 -0.5625 -2.265625q0 -2.171875 1.5625 -3.34375q1.5625 -1.1875 5.03125 -1.1875q1.375 0 2.59375 0.203125q1.234375 0.1875 2.109375 0.484375l0 3.046875q-0.9375 -0.375 -2.0625 -0.578125q-1.109375 -0.203125 -2.078125 -0.203125q-1.734375 0 -2.625 0.3125q-0.875 0.296875 -0.875 1.1875q0 0.9375 0.921875 1.328125q0.921875 0.375 2.953125 1.046875q1.859375 0.5625 2.953125 1.203125q1.109375 0.625 1.59375 1.515625q0.484375 0.875 0.484375 2.28125q0 2.328125 -1.703125 3.484375q-1.703125 1.140625 -4.9375 1.140625zm11.542358 -19.421875l0 -3.0l3.96875 0l0 3.0l-3.96875 0zm0.296875 19.09375l0 -13.03125l-2.40625 0l0.34375 -2.765625l5.6875 0l0 15.796875l-3.625 0zm11.795349 0.328125q-1.9375 0 -2.9375 -0.9375q-1.0 -0.953125 -1.0 -3.15625l0 -18.703125l3.640625 0l0 18.375q0 0.921875 0.328125 1.265625q0.34375 0.328125 1.0 0.328125q0.796875 0 1.53125 -0.203125l0 2.640625q-0.625 0.234375 -1.21875 0.3125q-0.578125 0.078125 -1.34375 0.078125z" fill-rule="nonzero"/><path fill="#000000" fill-opacity="0.0" d="m243.05484 65.39347l95.653534 0l0 237.5433l-95.653534 0z" fill-rule="evenodd"/><path fill="#ffffff" d="m260.88162 74.39347l60.0 0l0 71.99999l-60.0 0l0 -71.99999z" fill-rule="nonzero"/><path fill="#000000" fill-opacity="0.0" d="m260.88162 80.43097l60.0 0l0 60.0l-60.0 0l0 -60.0z" fill-rule="nonzero"/><path fill="#000000" d="m277.75662 104.80597q4.453125 6.09375 4.453125 12.65625q0 9.140625 -5.390625 9.140625l-2.8125 0l-0.9375 -4.6875l2.34375 0q2.34375 0 2.109375 -4.921875q-0.234375 -6.796875 -4.21875 -11.953125l4.6875 -15.234375l-7.265625 0l0 46.875l-4.6875 0l0 -50.625l13.125 0l0.9375 -1.171875l3.984375 3.515625l-0.9375 0.9375l-5.390625 15.46875zm33.984375 13.125l-2.34375 0q-3.75 17.109375 -25.078125 19.6875l-1.40625 -4.453125q18.28125 -1.40625 22.03125 -15.234375l-3.28125 0q-3.984375 9.84375 -16.875 11.953125l-1.40625 -3.984375q10.78125 -2.34375 13.359375 -7.96875l-3.75 0q-3.28125 3.28125 -8.4375 5.15625l-1.875 -3.984375q7.5 -2.34375 10.3125 -8.90625l-10.546875 0l0 -3.75l35.15625 0l0 3.75l-19.6875 0q-0.9375 2.109375 -2.34375 3.984375l20.625 0l-0.46875 14.765625q-0.234375 7.5 -5.390625 7.5l-4.6875 0l-0.703125 -4.453125l3.984375 0q2.109375 0 2.34375 -2.8125l0.46875 -11.25zm-19.921875 -18.28125l15.9375 0l0 -3.984375l-15.9375 0l0 3.984375zm0 -7.734375l15.9375 0l0 -3.75l-15.9375 0l0 3.75zm19.921875 -7.5l0 18.984375l-23.90625 0l0 -18.984375l23.90625 0z" fill-rule="nonzero"/><path fill="#000000" fill-opacity="0.0" d="m320.88162 86.99347l0 0l0 73.24219l0 0l0 -73.24219z" fill-rule="nonzero"/><path fill="#ffffff" d="m260.88162 146.39346l60.0 0l0 71.999985l-60.0 0l0 -71.999985z" fill-rule="nonzero"/><path fill="#000000" fill-opacity="0.0" d="m260.88162 152.43095l60.0 0l0 60.0l-60.0 0l0 -60.0z" fill-rule="nonzero"/><path fill="#000000" d="m280.33475 189.22783q1.171875 10.546875 -5.859375 10.546875l-1.875 0l-0.703125 -4.453125l2.34375 0q1.640625 0 1.640625 -3.75q-0.234375 -9.84375 -3.984375 -15.234375l4.6875 -14.765625l-6.796875 0l0 47.578125l-3.984375 0l0 -51.328125l12.65625 0l0.703125 -0.703125l3.28125 3.28125l-0.9375 0.46875l-2.578125 7.734375q13.125 -3.75 16.40625 -14.0625l4.921875 1.171875q1.171875 0.46875 -0.234375 1.171875q3.75 7.03125 17.578125 10.78125l-1.875 4.453125q-5.625 -1.640625 -9.375 -4.453125l0 3.046875l-15.9375 0l0 -3.046875q-3.046875 2.8125 -9.84375 5.859375l-2.109375 -3.75l-2.578125 7.03125q3.75 5.625 4.453125 12.421875zm17.34375 -29.296875q-2.578125 4.21875 -6.328125 7.03125l14.0625 0q-4.453125 -2.578125 -7.734375 -7.03125zm15.0 48.28125l-2.578125 -3.28125l-26.015625 3.046875q-0.703125 1.875 -1.40625 0l-1.171875 -4.6875l7.265625 -0.234375l3.046875 -8.4375l-9.609375 0l0 -3.75l35.15625 0l0 3.75l-20.390625 0l-4.453125 8.4375l15.0 -1.171875q-3.28125 -3.28125 -3.75 -3.28125l3.515625 -2.578125q5.625 3.984375 9.609375 9.140625l-4.21875 3.046875zm-26.953125 -24.84375l15.234375 0l2.578125 -5.859375l-18.75 0l0 -3.75l20.15625 0l0.234375 -1.171875l4.453125 3.046875l-0.703125 0.703125l-3.515625 7.03125l7.265625 0l0 3.75l-26.953125 0l0 -3.75z" fill-rule="nonzero"/><path fill="#000000" fill-opacity="0.0" d="m320.88162 158.99345l0 0l0 73.24219l0 0l0 -73.24219z" fill-rule="nonzero"/><path fill="#ffffff" d="m260.88162 218.39345l60.0 0l0 71.999985l-60.0 0l0 -71.999985z" fill-rule="nonzero"/><path fill="#000000" fill-opacity="0.0" d="m260.88162 224.43094l60.0 0l0 60.0l-60.0 0l0 -60.0z" fill-rule="nonzero"/><path fill="#000000" d="m303.77225 245.99344q-8.203125 -4.453125 -13.359375 -13.359375q-5.15625 8.4375 -11.953125 13.359375l25.3125 0zm11.015625 4.921875q-3.984375 -0.9375 -10.546875 -4.6875l0 4.921875l-26.484375 0l0 -4.6875q-6.328125 4.453125 -11.953125 6.09375l-2.109375 -5.625q16.40625 -4.453125 24.375 -19.21875l4.921875 0.703125q1.875 0.234375 0.234375 1.40625q7.5 11.25 23.90625 15.46875l-2.34375 5.625zm-5.15625 29.765625q-1.875 -2.578125 -4.453125 -4.921875l-33.984375 3.75q-1.171875 1.171875 -2.109375 0.46875l-1.640625 -5.859375l9.609375 -0.46875l6.5625 -11.953125l-16.875 0l0 -5.15625l48.046875 0l0 5.15625l-25.3125 0l-7.03125 11.71875l19.21875 -1.40625q-3.046875 -2.8125 -6.796875 -5.625l4.21875 -2.8125q11.25 8.4375 15.46875 14.0625l-4.921875 3.046875z" fill-rule="nonzero"/><path fill="#000000" fill-opacity="0.0" d="m320.88162 230.99344l0 0l0 73.24219l0 0l0 -73.24219z" fill-rule="nonzero"/><path fill="#000000" fill-opacity="0.0" d="m340.23346 65.71463l85.79526 0l0 312.18896l-85.79526 0z" fill-rule="evenodd"/><path fill="#ffffff" d="m349.23346 74.71463l60.0 0l0 72.0l-60.0 0l0 -72.0z" fill-rule="nonzero"/><path fill="#000000" fill-opacity="0.0" d="m349.23346 80.75213l60.0 0l0 60.000008l-60.0 0l0 -60.000008z" fill-rule="nonzero"/><path fill="#000000" d="m393.06158 92.00213q7.265625 6.5625 12.890625 15.234375l-4.6875 3.046875q-1.171875 -2.34375 -2.8125 -4.453125q-14.0625 1.171875 -27.65625 2.34375q-1.171875 1.640625 -1.40625 0.703125l-1.875 -5.859375q3.515625 0 7.03125 -0.234375q5.15625 -9.84375 8.203125 -19.21875l4.6875 1.875q1.640625 0.703125 -0.234375 1.40625q-3.046875 7.734375 -7.734375 15.9375q7.96875 -0.46875 15.9375 -0.9375q-2.8125 -3.75 -5.859375 -6.796875l3.515625 -3.046875zm-40.3125 40.312508q6.09375 -6.7968826 11.015625 -16.406258l4.21875 2.8125q-4.6875 9.140625 -10.078125 16.640633q0.234375 2.34375 -1.171875 1.171875l-3.984375 -4.21875zm42.890625 1.640625l-18.28125 0l0 2.8125l-4.6875 0l0 -24.140633l27.65625 0l0 23.437508l-4.6875 0l0 -2.109375zm0 -16.875008l-18.28125 0l0 12.421883l18.28125 0l0 -12.421883zm-33.515625 -7.265625q-3.515625 -3.515625 -8.203125 -6.09375l3.28125 -4.21875q4.6875 2.34375 8.4375 5.859375l-3.515625 4.453125zm3.75 -12.65625q-4.21875 -4.21875 -8.671875 -6.09375l2.8125 -4.453125q3.75 1.640625 8.90625 5.859375l-3.046875 4.6875z" fill-rule="nonzero"/><path fill="#000000" fill-opacity="0.0" d="m409.23346 87.31463l0 0l0 73.242195l0 0l0 -73.242195z" fill-rule="nonzero"/><path fill="#ffffff" d="m349.23346 146.71463l60.0 0l0 71.999985l-60.0 0l0 -71.999985z" fill-rule="nonzero"/><path fill="#000000" fill-opacity="0.0" d="m349.23346 152.75212l60.0 0l0 60.0l-60.0 0l0 -60.0z" fill-rule="nonzero"/><path fill="#000000" d="m354.85846 181.58025q-0.234375 -2.8125 -2.109375 -10.546875l4.21875 -1.40625q1.875 4.6875 2.34375 10.3125l-4.453125 1.640625zm11.015625 24.140625q5.859375 -3.515625 10.3125 -8.203125l3.75 2.578125q1.40625 1.171875 -0.703125 1.171875q-5.15625 5.15625 -10.78125 8.4375l-2.578125 -3.984375zm38.90625 -18.515625q-5.390625 -1.640625 -7.96875 -3.515625l0 12.890625l-8.90625 0l0 9.609375q0 3.28125 -3.046875 3.28125l-4.6875 0l-0.703125 -4.453125l2.8125 0q0.9375 0 0.9375 -0.9375l0 -7.5l-5.15625 0l-4.921875 0l0 -11.953125q-2.34375 1.875 -5.625 3.28125l-1.875 -4.21875q3.28125 -1.40625 6.5625 -3.515625q0.46875 -0.234375 -3.515625 -3.046875l2.8125 -3.28125q2.109375 1.171875 3.984375 3.28125q1.875 -1.40625 3.28125 -4.21875l-10.3125 0l0 -3.75l11.71875 0l0.9375 -3.75l-16.171875 0l0 25.546875q0 10.546875 -6.796875 18.28125l-3.984375 -3.515625q6.09375 -6.5625 6.796875 -16.640625l-5.625 2.8125q-0.234375 1.875 -1.171875 0.9375l-2.109375 -5.15625l8.90625 -3.515625l0 -22.5l17.578125 0l0 -5.625l4.453125 0q1.875 0.234375 0.234375 1.40625l0 4.21875l20.625 0l0 3.75l-18.515625 0l-0.9375 3.75l18.28125 0l0 3.75l-12.65625 0q1.640625 2.578125 4.21875 4.21875l3.28125 -3.984375l3.75 2.34375q1.171875 0.703125 -0.703125 0.9375l-3.046875 3.046875q4.453125 2.109375 8.671875 3.28125l-1.40625 4.453125zm-21.328125 -14.296875q-1.875 4.21875 -5.15625 7.265625l13.359375 0q-3.984375 -3.515625 -5.625 -7.265625l-2.578125 0zm-6.328125 14.0625l15.703125 0l0 -3.984375l-15.703125 0l0 3.984375zm15.703125 2.8125l-15.703125 0l0 3.984375l15.703125 0l0 -3.984375zm1.171875 7.265625q5.625 4.921875 11.484375 7.5l-2.34375 4.21875q-6.09375 -2.109375 -12.1875 -8.4375l3.046875 -3.28125z" fill-rule="nonzero"/><path fill="#000000" fill-opacity="0.0" d="m409.23346 159.31462l0 0l0 73.24219l0 0l0 -73.24219z" fill-rule="nonzero"/><path fill="#ffffff" d="m349.23346 218.71461l60.0 0l0 71.999985l-60.0 0l0 -71.999985z" fill-rule="nonzero"/><path fill="#000000" fill-opacity="0.0" d="m349.23346 224.7521l60.0 0l0 60.0l-60.0 0l0 -60.0z" fill-rule="nonzero"/><path fill="#000000" d="m401.73346 248.65836q-1.640625 6.09375 -6.09375 6.09375l-8.90625 0q-4.453125 0 -4.453125 -4.453125l0 -11.484375l-7.5 0l0 2.8125q0 10.546875 -15.46875 15.9375l-2.34375 -4.453125q13.125 -3.984375 13.125 -11.484375l0 -2.8125l-10.78125 0l0 7.96875l-5.390625 0l0 -12.421875l22.5 0l0 -6.5625l5.15625 0q1.875 0.234375 0.234375 1.40625l0 5.15625l22.5 0l0 11.015625l-5.390625 0l0 -6.5625l-11.953125 0l0 9.84375q0 1.640625 2.109375 1.640625l5.15625 0q2.34375 0 3.046875 -3.515625l4.453125 1.875zm3.515625 26.25l0 5.15625l-52.03125 0l0 -5.15625l23.4375 0l0 -10.078125l-17.8125 0l0 -5.15625l40.3125 0l0 5.15625l-17.8125 0l0 10.078125l23.90625 0z" fill-rule="nonzero"/><path fill="#000000" fill-opacity="0.0" d="m409.23346 231.3146l0 0l0 73.24219l0 0l0 -73.24219z" fill-rule="nonzero"/><path fill="#ffffff" d="m349.23346 290.7146l60.0 0l0 72.0l-60.0 0l0 -72.0z" fill-rule="nonzero"/><path fill="#000000" fill-opacity="0.0" d="m349.23346 296.7521l60.0 0l0 60.0l-60.0 0l0 -60.0z" fill-rule="nonzero"/><path fill="#000000" d="m397.74908 348.54898q0.9375 0 0.9375 -0.9375l0 -26.953125l-8.4375 0l-8.4375 0l0 -18.75l21.5625 0l0 47.34375q0 3.75 -3.75 3.75l-4.6875 0l-0.46875 -4.453125l3.28125 0zm-12.421875 -11.25l-12.421875 0l0 4.6875l12.421875 0l0 -4.6875zm0 -8.90625l-12.421875 0l0 5.15625l12.421875 0l0 -5.15625zm4.6875 -3.75l0 22.96875l-4.6875 0l0 -1.875l-12.421875 0l0 3.75l-4.6875 0l0 -24.84375l21.796875 0zm8.671875 -15.234375l0 -3.75l-12.1875 0l0 3.75l12.1875 0zm0 3.75l-12.1875 0l0 3.75l12.1875 0l0 -3.75zm-27.65625 0l-11.953125 0l0 3.75l11.953125 0l0 -3.75zm0 -3.75l0 -3.75l-11.953125 0l0 3.75l11.953125 0zm4.6875 11.25l-16.640625 0l0 32.578125l-4.6875 0l0 -51.328125l21.328125 0l0 18.75z" fill-rule="nonzero"/><path fill="#000000" fill-opacity="0.0" d="m409.23346 303.3146l0 0l0 73.24219l0 0l0 -73.24219z" fill-rule="nonzero"/><path fill="#000000" fill-opacity="0.0" d="m492.21143 227.59709l0 0c0 -111.552826 -88.612366 -201.98425 -197.92126 -201.98425l0 0c-52.491974 0 -102.834015 21.280422 -139.95145 59.159817c-37.11744 37.879395 -57.969803 89.254875 -57.969803 142.82443l0 0c0 111.55281 88.612366 201.98424 197.92125 201.98424l0 0c109.3089 0 197.92126 -90.43143 197.92126 -201.98424z" fill-rule="evenodd"/><path stroke="#bf9000" stroke-width="12.0" stroke-linejoin="round" stroke-linecap="butt" d="m492.21143 227.59709l0 0c0 -111.552826 -88.612366 -201.98425 -197.92126 -201.98425l0 0c-52.491974 0 -102.834015 21.280422 -139.95145 59.159817c-37.11744 37.879395 -57.969803 89.254875 -57.969803 142.82443l0 0c0 111.55281 88.612366 201.98424 197.92125 201.98424l0 0c109.3089 0 197.92126 -90.43143 197.92126 -201.98424z" fill-rule="evenodd"/><path fill="#000000" fill-opacity="0.0" d="m83.57218 227.59747l0 0c0 -118.2759 94.344536 -214.15747 210.72443 -214.15747l0 0c55.887573 0 109.486145 22.562958 149.00464 62.725277c39.518494 40.162315 61.719757 94.63412 61.719757 151.43219l0 0c0 118.27591 -94.34454 214.1575 -210.7244 214.1575l0 0c-116.37988 0 -210.72443 -95.88159 -210.72443 -214.1575z" fill-rule="evenodd"/><path stroke="#cc0000" stroke-width="16.0" stroke-linejoin="round" stroke-linecap="butt" d="m83.57218 227.59747l0 0c0 -118.2759 94.344536 -214.15747 210.72443 -214.15747l0 0c55.887573 0 109.486145 22.562958 149.00464 62.725277c39.518494 40.162315 61.719757 94.63412 61.719757 151.43219l0 0c0 118.27591 -94.34454 214.1575 -210.7244 214.1575l0 0c-116.37988 0 -210.72443 -95.88159 -210.72443 -214.1575z" fill-rule="evenodd"/><path fill="#000000" fill-opacity="0.0" d="m196.59694 150.53674l48.25197 0l0 146.74017l-48.25197 0z" fill-rule="evenodd"/><path fill="#ffffff" d="m205.59694 159.53674l28.0 0l0 33.600006l-28.0 0l0 -33.600006z" fill-rule="nonzero"/><path fill="#000000" fill-opacity="0.0" d="m205.59694 162.35425l28.0 0l0 28.0l-28.0 0l0 -28.0z" fill-rule="nonzero"/><path fill="#000000" d="m207.23756 175.47925q3.71875 -3.71875 5.359375 -11.59375l2.515625 0.765625q0.4375 0.4375 -0.328125 0.546875q-0.875 3.5 -2.078125 6.125l0.4375 0.109375q0.328125 0.328125 -0.21875 0.65625l0 16.625l-2.1875 0l0 -13.78125q-1.09375 1.859375 -2.515625 3.0625l-0.984375 -2.515625zm9.1875 -7.328125l4.921875 0l0.875 -4.375l2.734375 0.4375q0.4375 0.4375 -0.328125 0.546875l-0.984375 3.390625l6.671875 0l0 20.015625l-2.1875 0l0 -1.3125l-9.515625 0l0 1.3125l-2.1875 0l0 -20.015625zm2.1875 2.078125l0 6.234375l9.515625 0l0 -6.234375l-9.515625 0zm0 8.3125l0 6.234375l9.515625 0l0 -6.234375l-9.515625 0z" fill-rule="nonzero"/><path fill="#000000" fill-opacity="0.0" d="m233.59694 161.06909l7.779297 0l0 32.197266l-7.779297 0l0 -32.197266z" fill-rule="nonzero"/><path fill="#ffffff" d="m205.59694 193.13675l28.0 0l0 33.59999l-28.0 0l0 -33.59999z" fill-rule="nonzero"/><path fill="#000000" fill-opacity="0.0" d="m205.59694 195.95424l28.0 0l0 28.0l-28.0 0l0 -28.0z" fill-rule="nonzero"/><path fill="#000000" d="m219.48756 211.70424l-3.0625 0l0 1.3125q3.9375 1.640625 5.578125 3.0625l-0.984375 2.40625q-2.078125 -1.859375 -4.59375 -3.28125l0 7.328125l-2.1875 0l0 -6.890625q-2.296875 2.84375 -5.796875 4.8125l-1.09375 -2.296875q5.03125 -2.84375 6.890625 -6.453125l-2.953125 0l0 0.765625l-2.1875 0l0 -7.65625l5.140625 0l0 -2.1875l-6.453125 0l0 -2.078125l6.453125 0l0 -3.28125l2.078125 0q0.875 0.109375 0.109375 0.65625l0 2.625l6.5625 0l0 2.078125l-6.5625 0l0 2.1875l5.25 0l0 7.328125l-2.1875 0l0 -0.4375zm11.265625 -13.671875q0.875 0.109375 0.109375 0.65625l0 21.4375q0 1.96875 -1.75 1.96875l-2.078125 0l-0.328125 -2.078125l1.640625 0q0.328125 0 0.328125 -0.328125l0 -21.65625l2.078125 0zm-4.484375 18.8125l-2.1875 0l0 -15.3125l2.078125 0q0.875 0.109375 0.109375 0.65625l0 14.65625zm-9.84375 -9.953125l0 2.734375l3.0625 0l0 -2.734375l-3.0625 0zm-5.140625 0l0 2.734375l2.953125 0l0 -2.734375l-2.953125 0z" fill-rule="nonzero"/><path fill="#ffffff" d="m205.59694 226.73674l28.0 0l0 33.59999l-28.0 0l0 -33.59999z" fill-rule="nonzero"/><path fill="#000000" fill-opacity="0.0" d="m205.59694 229.55424l28.0 0l0 27.999985l-28.0 0l0 -27.999985z" fill-rule="nonzero"/><path fill="#000000" d="m225.17506 246.28862q0.765625 0 1.09375 -1.96875l1.53125 0.875l0 -4.484375l-4.703125 0l0 4.703125q0 0.875 0.765625 0.875l1.3125 0zm2.625 0.765625q-0.546875 1.3125 -1.96875 1.3125l-3.0625 0q-1.859375 0 -1.859375 -1.859375l0 -5.796875l-3.390625 0q0.21875 6.015625 -4.59375 9.40625l-1.53125 -1.96875q4.15625 -2.515625 3.9375 -7.4375l-4.15625 0l0 11.375l16.625 0l0 -5.03125zm-12.46875 -12.359375l-7.984375 0l0 -2.078125l24.171875 0l0 2.078125l-8.421875 0l0 3.9375l6.890625 0l0 16.625l-2.1875 0l0 -1.09375l-16.625 0l0 1.09375l-2.1875 0l0 -16.625l6.34375 0l0 -3.9375zm2.1875 0l0 3.9375l3.390625 0l0 -3.9375l-3.390625 0z" fill-rule="nonzero"/><path fill="#000000" fill-opacity="0.0" d="m233.59694 228.26909l7.779297 0l0 32.19725l-7.779297 0l0 -32.19725z" fill-rule="nonzero"/><path fill="#ffffff" d="m205.59694 260.33673l28.0 0l0 33.600006l-28.0 0l0 -33.600006z" fill-rule="nonzero"/><path fill="#000000" fill-opacity="0.0" d="m205.59694 263.15424l28.0 0l0 28.0l-28.0 0l0 -28.0z" fill-rule="nonzero"/><path fill="#000000" d="m224.51881 267.748q3.28125 2.625 7.984375 4.265625l-1.09375 1.96875q-0.765625 -0.21875 -1.53125 -0.65625l0 14.0q0 1.96875 -1.75 1.96875l-2.1875 0l-0.546875 -2.078125l1.96875 0q0.328125 0 0.328125 -0.328125l0 -12.6875l-7.0 0l0 14.65625l-2.1875 0l0 -14.65625l-7.0 0l0 14.984375l-2.1875 0l0 -15.640625q-0.765625 0.4375 -1.421875 0.65625l-1.09375 -1.859375q4.375 -1.640625 7.21875 -4.59375l-6.234375 0l0 -2.078125l23.515625 0l0 2.078125l-6.78125 0zm2.1875 13.78125q-0.546875 0.765625 -1.3125 1.53125q0.875 0.546875 1.859375 1.421875l-0.875 1.203125q-0.875 -0.875 -1.859375 -1.53125q-1.203125 1.203125 -2.40625 2.078125l-0.984375 -1.09375q1.3125 -0.875 2.296875 -1.859375q-1.09375 -0.65625 -2.1875 -1.203125l0.765625 -0.984375q1.09375 0.4375 2.296875 1.203125q0.765625 -0.984375 1.421875 -1.96875l1.203125 0.765625q0.546875 0.4375 -0.21875 0.4375zm-0.328125 -5.359375q-0.546875 0.65625 -1.09375 1.3125q0.875 0.546875 1.75 1.421875l-0.984375 1.09375q-0.875 -0.875 -1.75 -1.421875q-0.984375 1.09375 -2.40625 2.078125l-0.984375 -1.09375q1.421875 -0.875 2.296875 -1.75q-0.875 -0.65625 -1.96875 -1.3125l0.875 -1.09375q1.203125 0.65625 2.078125 1.3125q0.765625 -0.984375 1.3125 -1.75l1.09375 0.765625q0.546875 0.4375 -0.21875 0.4375zm-8.75 4.8125q0.546875 0.4375 -0.21875 0.4375q-0.4375 0.65625 -1.203125 1.53125q0.984375 0.765625 1.859375 1.640625l-0.984375 1.3125q-0.875 -1.09375 -1.859375 -1.75q-0.984375 1.09375 -2.625 2.078125l-0.875 -1.203125q1.421875 -0.875 2.40625 -1.75q-0.765625 -0.65625 -1.859375 -1.203125l0.765625 -1.203125q1.09375 0.546875 2.078125 1.203125q0.65625 -0.765625 1.3125 -1.859375l1.203125 0.765625zm-5.796875 -1.75q1.3125 -0.875 2.296875 -1.859375q-0.875 -0.65625 -1.75 -1.203125l0.765625 -0.984375q0.984375 0.546875 1.96875 1.3125q0.65625 -0.65625 1.3125 -1.53125l1.09375 0.765625q0.546875 0.4375 -0.21875 0.4375q-0.65625 0.65625 -1.203125 1.203125q0.875 0.65625 1.640625 1.53125l-0.984375 1.09375q-0.765625 -0.984375 -1.640625 -1.640625q-0.984375 0.984375 -2.40625 1.96875l-0.875 -1.09375zm6.671875 -11.484375l-4.15625 0l1.53125 1.3125q0.4375 0.4375 -0.65625 0.4375q-1.53125 1.3125 -3.9375 2.953125l7.21875 0l0 -4.703125zm2.1875 0l0 4.703125l7.4375 0q-2.296875 -1.09375 -5.03125 -3.171875l1.3125 -1.53125l-3.71875 0z" fill-rule="nonzero"/><path fill="#000000" fill-opacity="0.0" d="m137.83118 150.53674l48.25197 0l0 117.35434l-48.25197 0z" fill-rule="evenodd"/><path stroke="#ffffff" stroke-width="4.0" stroke-linejoin="round" stroke-linecap="butt" d="m137.83118 150.53674l48.25197 0l0 117.35434l-48.25197 0z" fill-rule="evenodd"/><path fill="#000000" d="m148.4718 178.43237q11.484375 -4.8125 17.390625 -13.5625l2.078125 1.75q0.875 0.65625 -0.765625 0.984375q-2.078125 2.734375 -5.359375 5.578125l0 14.875l-2.515625 0l0 -12.796875q-3.828125 2.953125 -8.96875 5.359375l-1.859375 -2.1875z" fill-rule="nonzero"/><path fill="#000000" d="m165.64368 202.95424q5.46875 6.890625 7.765625 14.546875l-2.953125 0.984375q-2.734375 -8.640625 -7.109375 -13.78125l2.296875 -1.75zm-8.3125 2.515625q0.875 0.546875 -0.21875 0.984375q-1.96875 6.890625 -6.34375 12.578125l-2.515625 -1.640625q4.8125 -5.796875 6.453125 -13.125l2.625 1.203125zm13.125 -8.53125q1.421875 1.203125 3.5 3.390625l-1.421875 1.3125q-1.96875 -2.1875 -3.5 -3.5l1.421875 -1.203125zm-2.625 1.640625q1.640625 1.53125 3.5 3.71875l-1.640625 1.203125q-1.640625 -2.1875 -3.390625 -3.71875l1.53125 -1.203125z" fill-rule="nonzero"/><path fill="#000000" fill-opacity="0.0" d="m137.83118 219.2404l48.25197 0l0 78.01573l-48.25197 0z" fill-rule="evenodd"/><path fill="#000000" d="m160.17493 243.96414q0.21875 8.3125 -7.109375 12.90625l-1.859375 -2.078125q6.453125 -3.5 6.453125 -9.84375l0 -4.703125l2.296875 0q0.984375 0.109375 0.21875 0.765625l0 2.84375q3.9375 -2.953125 6.015625 -5.796875l-17.828125 0.65625l-0.21875 -2.515625l19.90625 -0.546875l0.765625 -0.21875l1.640625 1.96875q0.328125 0.4375 -0.546875 0.328125q-3.28125 4.265625 -7.875 7.984375l-1.859375 -1.75z" fill-rule="nonzero"/><path fill="#000000" fill-opacity="0.0" d="m137.83118 150.53674l48.25197 0l0 117.35434l-48.25197 0z" fill-rule="evenodd"/><path stroke="#0000ff" stroke-width="4.0" stroke-linejoin="round" stroke-linecap="butt" d="m137.83118 150.53674l48.25197 0l0 117.35434l-48.25197 0z" fill-rule="evenodd"/><path fill="#000000" fill-opacity="0.0" d="m141.55779 154.37485l40.7874 0l0 109.66931l-40.7874 0z" fill-rule="evenodd"/><path stroke="#cc0000" stroke-width="4.0" stroke-linejoin="round" stroke-linecap="butt" d="m141.55779 154.37485l40.7874 0l0 109.66931l-40.7874 0z" fill-rule="evenodd"/><path fill="#000000" fill-opacity="0.0" d="m194.73363 150.40074l48.25197 0l0 149.70079l-48.25197 0z" fill-rule="evenodd"/><path stroke="#6aa84f" stroke-width="4.0" stroke-linejoin="round" stroke-linecap="butt" d="m194.73363 150.40074l48.25197 0l0 149.70079l-48.25197 0z" fill-rule="evenodd"/><path fill="#000000" fill-opacity="0.0" d="m198.46024 153.88849l40.7874 0l0 142.74014l-40.7874 0z" fill-rule="evenodd"/><path stroke="#f1c232" stroke-width="4.0" stroke-linejoin="round" stroke-linecap="butt" d="m198.46024 153.88849l40.7874 0l0 142.74014l-40.7874 0z" fill-rule="evenodd"/></g></svg>